<svg width="120"
     height="43"
     viewBox="0 0 120 43"
     fill="none"
     xmlns="http://www.w3.org/2000/svg">
    <g clip-path="url(#clip0_333_801)">
        <path d="M22.8217 32.2498H11.729C11.729 38.1871 16.6952 43 22.8217 43V32.2498Z"
              fill="#ECD80C" />
        <path d="M22.8229 10.7491H11.7302V32.2486H22.8229V10.7491Z"
              fill="#FE4B79" />
        <path d="M11.729 21.4994H22.8217L22.8217 -2.67029e-05H11.729L11.729 21.4994Z"
              fill="#4E8EFF" />
        <path d="M11.7302 10.7491V21.4994H33.9144V10.7491L11.7302 10.7491Z"
              fill="#6C30ED" />
        <path d="M6.18326 21.4994C9.2461 21.4994 11.729 19.0931 11.729 16.1248C11.729 13.1565 9.2461 10.7502 6.18326 10.7502C3.12043 10.7502 0.637512 13.1565 0.637512 16.1248C0.637512 19.0931 3.12043 21.4994 6.18326 21.4994Z"
              fill="#00DF98" />
        <path d="M28.3687 42.9989C31.4315 42.9989 33.9144 40.5926 33.9144 37.6243C33.9144 34.656 31.4315 32.2498 28.3687 32.2498C25.3059 32.2498 22.8229 34.656 22.8229 37.6243C22.8229 40.5926 25.3059 42.9989 28.3687 42.9989Z"
              fill="#F7941E" />
    </g>
    <g clip-path="url(#clip1_333_801)">
        <path d="M42.787 15.8596H48.9438V16.7928H46.4642V24.6667H45.2786V16.7928H42.787V15.8596ZM51.0171 16.6178C50.7904 16.6178 50.5988 16.542 50.4424 16.3903C50.2859 16.2387 50.2077 16.053 50.2077 15.8333C50.2077 15.6136 50.2859 15.4279 50.4424 15.2763C50.5988 15.1247 50.7904 15.0488 51.0171 15.0488C51.2338 15.0488 51.4183 15.1247 51.5708 15.2763C51.7233 15.4279 51.7995 15.6136 51.7995 15.8333C51.7995 16.053 51.7233 16.2387 51.5708 16.3903C51.4183 16.542 51.2338 16.6178 51.0171 16.6178ZM50.4032 17.7406H51.5889V24.6667H50.4032V17.7406ZM62.2052 17.6152C62.7609 17.6152 63.2564 17.7269 63.6917 17.9505C64.125 18.1741 64.4681 18.5085 64.7209 18.9537C64.9736 19.4009 65.1 19.9443 65.1 20.5839V24.6667H63.9264V20.7502C63.9264 20.058 63.7499 19.5292 63.3968 19.1637C63.0458 18.7962 62.5703 18.6125 61.9705 18.6125C61.3526 18.6125 60.8611 18.804 60.496 19.187C60.1309 19.572 59.9483 20.1261 59.9483 20.8493V24.6667H58.7747V20.7502C58.7747 20.058 58.5982 19.5292 58.2451 19.1637C57.8941 18.7962 57.4186 18.6125 56.8188 18.6125C56.2009 18.6125 55.7094 18.804 55.3443 19.187C54.9792 19.572 54.7966 20.1261 54.7966 20.8493V24.6667H53.611V17.7406H54.7966V18.7408C55.0313 18.3773 55.3463 18.0993 55.7415 17.9068C56.1387 17.7124 56.5761 17.6152 57.0535 17.6152C57.6533 17.6152 58.1839 17.7454 58.6454 18.0059C59.1048 18.2684 59.4478 18.6524 59.6745 19.1579C59.8751 18.6679 60.2051 18.2888 60.6645 18.0205C61.1259 17.7503 61.6395 17.6152 62.2052 17.6152ZM73.5618 20.9397C73.5618 21.1575 73.5487 21.3888 73.5227 21.6338H67.8113C67.8554 22.3162 68.0961 22.8489 68.5335 23.2319C68.9728 23.6149 69.5054 23.8064 70.1313 23.8064C70.6449 23.8064 71.0732 23.6907 71.4163 23.4594C71.7593 23.228 72.001 22.9189 72.1415 22.532H73.4174C73.2268 23.1969 72.8446 23.7374 72.2709 24.1534C71.6971 24.5714 70.9839 24.7804 70.1313 24.7804C69.4533 24.7804 68.8474 24.6327 68.3138 24.3372C67.7782 24.0436 67.3589 23.6246 67.056 23.0803C66.751 22.5378 66.5986 21.9079 66.5986 21.1905C66.5986 20.475 66.746 19.848 67.0409 19.3095C67.3378 18.769 67.7531 18.3539 68.2867 18.0643C68.8224 17.7726 69.4372 17.6268 70.1313 17.6268C70.8094 17.6268 71.4092 17.7707 71.9308 18.0584C72.4524 18.3442 72.8546 18.7379 73.1375 19.2395C73.4204 19.7411 73.5618 20.3078 73.5618 20.9397ZM72.3371 20.6977C72.3371 20.2602 72.2368 19.883 72.0361 19.5661C71.8355 19.2512 71.5637 19.0111 71.2207 18.8458C70.8776 18.6825 70.4975 18.6009 70.0802 18.6009C69.4804 18.6009 68.9698 18.7865 68.5485 19.1579C68.1272 19.5273 67.8855 20.0405 67.8233 20.6977H72.3371ZM81.6053 24.6667H80.0556L76.3122 20.6481V24.6667H75.1266V15.8596H76.3122V19.9394L80.0676 15.8596H81.5662L77.4466 20.269L81.6053 24.6667ZM89.4562 20.9397C89.4562 21.1575 89.4432 21.3888 89.4171 21.6338H83.7057C83.7498 22.3162 83.9916 22.8489 84.4309 23.2319C84.8682 23.6149 85.3998 23.8064 86.0258 23.8064C86.5393 23.8064 86.9676 23.6907 87.3107 23.4594C87.6537 23.228 87.8955 22.9189 88.0359 22.532H89.3118C89.1212 23.1969 88.739 23.7374 88.1653 24.1534C87.5915 24.5714 86.8784 24.7804 86.0258 24.7804C85.3477 24.7804 84.7418 24.6327 84.2082 24.3372C83.6726 24.0436 83.2533 23.6246 82.9504 23.0803C82.6455 22.5378 82.493 21.9079 82.493 21.1905C82.493 20.475 82.6404 19.848 82.9353 19.3095C83.2322 18.769 83.6475 18.3539 84.1811 18.0643C84.7168 17.7726 85.3316 17.6268 86.0258 17.6268C86.7038 17.6268 87.3036 17.7707 87.8252 18.0584C88.3468 18.3442 88.7491 18.7379 89.0319 19.2395C89.3148 19.7411 89.4562 20.3078 89.4562 20.9397ZM88.2315 20.6977C88.2315 20.2602 88.1312 19.883 87.9306 19.5661C87.7299 19.2512 87.4581 19.0111 87.1151 18.8458C86.772 18.6825 86.3919 18.6009 85.9746 18.6009C85.3748 18.6009 84.8642 18.7865 84.4429 19.1579C84.0216 19.5273 83.7799 20.0405 83.7177 20.6977H88.2315ZM97.5418 20.9397C97.5418 21.1575 97.5288 21.3888 97.5027 21.6338H91.7913C91.8335 22.3162 92.0742 22.8489 92.5135 23.2319C92.9529 23.6149 93.4855 23.8064 94.1114 23.8064C94.625 23.8064 95.0533 23.6907 95.3963 23.4594C95.7393 23.228 95.9801 22.9189 96.1185 22.532H97.3974C97.2068 23.1969 96.8246 23.7374 96.2509 24.1534C95.6772 24.5714 94.964 24.7804 94.1114 24.7804C93.4333 24.7804 92.8275 24.6327 92.2938 24.3372C91.7582 24.0436 91.3379 23.6246 91.033 23.0803C90.7301 22.5378 90.5786 21.9079 90.5786 21.1905C90.5786 20.475 90.7261 19.848 91.021 19.3095C91.3159 18.769 91.7311 18.3539 92.2668 18.0643C92.8004 17.7726 93.4153 17.6268 94.1114 17.6268C94.7895 17.6268 95.3893 17.7707 95.9109 18.0584C96.4325 18.3442 96.8347 18.7379 97.1175 19.2395C97.4004 19.7411 97.5418 20.3078 97.5418 20.9397ZM96.3141 20.6977C96.3141 20.2602 96.2148 19.883 96.0162 19.5661C95.8156 19.2512 95.5437 19.0111 95.2007 18.8458C94.8577 18.6825 94.4775 18.6009 94.0602 18.6009C93.4604 18.6009 92.9498 18.7865 92.5286 19.1579C92.1053 19.5273 91.8635 20.0405 91.8034 20.6977H96.3141ZM100.292 19.0179C100.527 18.6213 100.877 18.2908 101.342 18.0263C101.808 17.76 102.348 17.6268 102.964 17.6268C103.6 17.6268 104.177 17.7746 104.695 18.0701C105.21 18.3656 105.616 18.7807 105.913 19.3153C106.208 19.85 106.356 20.4712 106.356 21.1788C106.356 21.8788 106.208 22.5019 105.913 23.0482C105.616 23.5964 105.21 24.0222 104.695 24.3255C104.177 24.6288 103.6 24.7804 102.964 24.7804C102.356 24.7804 101.82 24.6473 101.354 24.3809C100.889 24.1165 100.535 23.786 100.292 23.3894V27.9534H99.1066V17.7406H100.292V19.0179ZM105.143 21.1788C105.143 20.6559 105.035 20.2009 104.818 19.814C104.599 19.4271 104.305 19.1326 103.936 18.9304C103.567 18.7282 103.161 18.6271 102.718 18.6271C102.282 18.6271 101.88 18.7301 101.511 18.9362C101.142 19.1423 100.847 19.4407 100.626 19.8315C100.404 20.2242 100.292 20.6772 100.292 21.1905C100.292 21.7135 100.404 22.1704 100.626 22.5612C100.847 22.9539 101.142 23.2533 101.511 23.4594C101.88 23.6655 102.282 23.7685 102.718 23.7685C103.161 23.7685 103.567 23.6655 103.936 23.4594C104.305 23.2533 104.599 22.9539 104.818 22.5612C105.035 22.1704 105.143 21.7096 105.143 21.1788ZM114.441 20.9397C114.441 21.1575 114.428 21.3888 114.402 21.6338H108.691C108.733 22.3162 108.974 22.8489 109.413 23.2319C109.852 23.6149 110.385 23.8064 111.011 23.8064C111.524 23.8064 111.953 23.6907 112.296 23.4594C112.639 23.228 112.88 22.9189 113.018 22.532H114.297C114.106 23.1969 113.724 23.7374 113.15 24.1534C112.577 24.5714 111.863 24.7804 111.011 24.7804C110.333 24.7804 109.726 24.6327 109.19 24.3372C108.657 24.0436 108.237 23.6246 107.932 23.0803C107.63 22.5378 107.478 21.9079 107.478 21.1905C107.478 20.475 107.626 19.848 107.92 19.3095C108.215 18.769 108.631 18.3539 109.166 18.0643C109.7 17.7726 110.315 17.6268 111.011 17.6268C111.689 17.6268 112.289 17.7707 112.81 18.0584C113.332 18.3442 113.734 18.7379 114.017 19.2395C114.3 19.7411 114.441 20.3078 114.441 20.9397ZM113.214 20.6977C113.214 20.2602 113.114 19.883 112.916 19.5661C112.715 19.2512 112.443 19.0111 112.1 18.8458C111.757 18.6825 111.377 18.6009 110.96 18.6009C110.36 18.6009 109.848 18.7865 109.425 19.1579C109.004 19.5273 108.763 20.0405 108.703 20.6977H113.214ZM117.192 18.8662C117.4 18.4696 117.698 18.1624 118.085 17.9447C118.473 17.725 118.944 17.6152 119.5 17.6152V18.8021H119.187C117.857 18.8021 117.192 19.502 117.192 20.9018V24.6667H116.006V17.7406H117.192V18.8662Z"
              fill="black" />
    </g>
    <defs>
        <clipPath id="clip0_333_801">
            <rect width="33.3351"
                  height="43"
                  fill="white"
                  transform="translate(0.637512)" />
        </clipPath>
        <clipPath id="clip1_333_801">
            <rect width="76.7127"
                  height="12.9045"
                  fill="white"
                  transform="translate(42.787 15.0488)" />
        </clipPath>
    </defs>
</svg>