<svg xmlns="http://www.w3.org/2000/svg" viewBox="110.49000549316406 50.00000000000003 354.0199890136719 475.0086248855539"><rect height="100%" width="100%" x="110.49000549316406" y="50.00000000000003" fill="rgba(108, 48, 237, 1)"/> <svg xmlns="http://www.w3.org/2000/svg" viewBox="361.3299865722656 315.1099853515625 277.3399963378906 369.7900390625" height="261.47894417070705" width="196.4502710898634" y="120.00000000000003" x="189.27486391605672" preserveAspectRatio="xMinYMin" style="overflow: visible;"><path class="cls-1" d="m546.22,592.45h-92.45c0,51.06,41.39,92.45,92.45,92.45h0v-92.45Z" style="fill: #ecd80c;"></path><rect class="cls-5" x="453.78" y="407.55" width="92.45" height="184.89" style="fill: #fe4b79;"></rect><rect class="cls-3" x="453.78" y="315.11" width="92.45" height="184.89" transform="translate(1000 815.11) rotate(-180)" style="fill: #4e8eff;"></rect><rect class="cls-4" x="500" y="361.33" width="92.45" height="184.89" transform="translate(92.45 1000) rotate(-90)" style="fill: #F85D5D; fill-opacity: 1;"></rect><circle class="cls-6" cx="407.55" cy="453.78" r="46.22" style="fill: #00df98;"></circle><circle class="cls-2" cx="592.45" cy="638.67" r="46.22" style="fill: #f7941e;"></circle></svg> <svg xmlns="http://www.w3.org/2000/svg" y="417.858623359675" viewBox="1.2400000095367432 10.510000228881836 214.01998901367188 37.150001525878906" x="180.49000549316406" height="37.150001525878906" width="214.01998901367188" style="overflow: visible;"><g fill="#ffffff" fill-opacity="1" style=""><path d="M1.24 12.84L18.41 12.84L18.41 15.53L11.50 15.53L11.50 38.20L8.19 38.20L8.19 15.53L1.24 15.53L1.24 12.84ZM24.19 15.02Q23.25 15.02 22.59 14.37Q21.94 13.72 21.94 12.77L21.94 12.77Q21.94 11.82 22.59 11.17Q23.25 10.51 24.19 10.51L24.19 10.51Q25.10 10.51 25.74 11.17Q26.38 11.82 26.38 12.77L26.38 12.77Q26.38 13.72 25.74 14.37Q25.10 15.02 24.19 15.02L24.19 15.02ZM22.48 18.26L25.79 18.26L25.79 38.20L22.48 38.20L22.48 18.26ZM55.41 17.90Q57.73 17.90 59.55 18.86Q61.37 19.83 62.43 21.76Q63.48 23.68 63.48 26.45L63.48 26.45L63.48 38.20L60.21 38.20L60.21 26.92Q60.21 23.94 58.73 22.36Q57.26 20.77 54.75 20.77L54.75 20.77Q52.17 20.77 50.64 22.43Q49.11 24.08 49.11 27.21L49.11 27.21L49.11 38.20L45.84 38.20L45.84 26.92Q45.84 23.94 44.37 22.36Q42.89 20.77 40.38 20.77L40.38 20.77Q37.80 20.77 36.27 22.43Q34.74 24.08 34.74 27.21L34.74 27.21L34.74 38.20L31.43 38.20L31.43 18.26L34.74 18.26L34.74 21.14Q35.72 19.57 37.38 18.74Q39.04 17.90 41.04 17.90L41.04 17.90Q43.55 17.90 45.47 19.03Q47.40 20.15 48.35 22.34L48.35 22.34Q49.19 20.23 51.11 19.06Q53.04 17.90 55.41 17.90L55.41 17.90ZM87.09 27.47Q87.09 28.41 86.98 29.47L86.98 29.47L71.05 29.47Q71.23 32.41 73.07 34.07Q74.91 35.72 77.53 35.72L77.53 35.72Q79.67 35.72 81.11 34.72Q82.55 33.72 83.13 32.05L83.13 32.05L86.69 32.05Q85.89 34.92 83.49 36.73Q81.09 38.53 77.53 38.53L77.53 38.53Q74.69 38.53 72.45 37.25Q70.21 35.98 68.94 33.63Q67.67 31.29 67.67 28.19L67.67 28.19Q67.67 25.10 68.90 22.77Q70.14 20.45 72.38 19.19Q74.61 17.94 77.53 17.94L77.53 17.94Q80.36 17.94 82.55 19.17Q84.73 20.41 85.91 22.57Q87.09 24.74 87.09 27.47L87.09 27.47ZM83.67 26.78Q83.67 24.88 82.84 23.52Q82.00 22.16 80.56 21.45Q79.13 20.74 77.38 20.74L77.38 20.74Q74.87 20.74 73.10 22.34Q71.34 23.94 71.09 26.78L71.09 26.78L83.67 26.78ZM109.54 38.20L105.21 38.20L94.77 26.63L94.77 38.20L91.46 38.20L91.46 12.84L94.77 12.84L94.77 24.59L105.25 12.84L109.43 12.84L97.93 25.54L109.54 38.20ZM131.44 27.47Q131.44 28.41 131.33 29.47L131.33 29.47L115.40 29.47Q115.58 32.41 117.42 34.07Q119.25 35.72 121.87 35.72L121.87 35.72Q124.02 35.72 125.46 34.72Q126.89 33.72 127.47 32.05L127.47 32.05L131.04 32.05Q130.24 34.92 127.84 36.73Q125.44 38.53 121.87 38.53L121.87 38.53Q119.03 38.53 116.80 37.25Q114.56 35.98 113.29 33.63Q112.01 31.29 112.01 28.19L112.01 28.19Q112.01 25.10 113.25 22.77Q114.49 20.45 116.72 19.19Q118.96 17.94 121.87 17.94L121.87 17.94Q124.71 17.94 126.89 19.17Q129.08 20.41 130.26 22.57Q131.44 24.74 131.44 27.47L131.44 27.47ZM128.02 26.78Q128.02 24.88 127.18 23.52Q126.35 22.16 124.91 21.45Q123.47 20.74 121.73 20.74L121.73 20.74Q119.22 20.74 117.45 22.34Q115.69 23.94 115.43 26.78L115.43 26.78L128.02 26.78ZM154.00 27.47Q154.00 28.41 153.89 29.47L153.89 29.47L137.95 29.47Q138.13 32.41 139.97 34.07Q141.81 35.72 144.43 35.72L144.43 35.72Q146.57 35.72 148.01 34.72Q149.45 33.72 150.03 32.05L150.03 32.05L153.60 32.05Q152.79 34.92 150.39 36.73Q147.99 38.53 144.43 38.53L144.43 38.53Q141.59 38.53 139.35 37.25Q137.12 35.98 135.84 33.63Q134.57 31.29 134.57 28.19L134.57 28.19Q134.57 25.10 135.81 22.77Q137.04 20.45 139.28 19.19Q141.52 17.94 144.43 17.94L144.43 17.94Q147.26 17.94 149.45 19.17Q151.63 20.41 152.81 22.57Q154.00 24.74 154.00 27.47L154.00 27.47ZM150.58 26.78Q150.58 24.88 149.74 23.52Q148.90 22.16 147.47 21.45Q146.03 20.74 144.28 20.74L144.28 20.74Q141.77 20.74 140.01 22.34Q138.24 23.94 137.99 26.78L137.99 26.78L150.58 26.78ZM161.67 21.94Q162.65 20.23 164.60 19.08Q166.55 17.94 169.13 17.94L169.13 17.94Q171.78 17.94 173.95 19.21Q176.11 20.48 177.35 22.79Q178.59 25.10 178.59 28.16L178.59 28.16Q178.59 31.18 177.35 33.54Q176.11 35.91 173.95 37.22Q171.78 38.53 169.13 38.53L169.13 38.53Q166.58 38.53 164.64 37.38Q162.69 36.23 161.67 34.52L161.67 34.52L161.67 47.66L158.36 47.66L158.36 18.26L161.67 18.26L161.67 21.94ZM175.20 28.16Q175.20 25.90 174.30 24.23Q173.39 22.56 171.84 21.68Q170.29 20.81 168.44 20.81L168.44 20.81Q166.62 20.81 165.07 21.70Q163.53 22.59 162.60 24.28Q161.67 25.98 161.67 28.19L161.67 28.19Q161.67 30.45 162.60 32.14Q163.53 33.83 165.07 34.72Q166.62 35.62 168.44 35.62L168.44 35.62Q170.29 35.62 171.84 34.72Q173.39 33.83 174.30 32.14Q175.20 30.45 175.20 28.16L175.20 28.16ZM201.14 27.47Q201.14 28.41 201.03 29.47L201.03 29.47L185.10 29.47Q185.28 32.41 187.12 34.07Q188.96 35.72 191.58 35.72L191.58 35.72Q193.72 35.72 195.16 34.72Q196.60 33.72 197.18 32.05L197.18 32.05L200.74 32.05Q199.94 34.92 197.54 36.73Q195.14 38.53 191.58 38.53L191.58 38.53Q188.74 38.53 186.50 37.25Q184.26 35.98 182.99 33.63Q181.72 31.29 181.72 28.19L181.72 28.19Q181.72 25.10 182.95 22.77Q184.19 20.45 186.43 19.19Q188.67 17.94 191.58 17.94L191.58 17.94Q194.41 17.94 196.60 19.17Q198.78 20.41 199.96 22.57Q201.14 24.74 201.14 27.47L201.14 27.47ZM197.72 26.78Q197.72 24.88 196.89 23.52Q196.05 22.16 194.61 21.45Q193.18 20.74 191.43 20.74L191.43 20.74Q188.92 20.74 187.16 22.34Q185.39 23.94 185.14 26.78L185.14 26.78L197.72 26.78ZM208.82 21.50Q209.69 19.79 211.31 18.84Q212.93 17.90 215.26 17.90L215.26 17.90L215.26 21.32L214.39 21.32Q208.82 21.32 208.82 27.36L208.82 27.36L208.82 38.20L205.51 38.20L205.51 18.26L208.82 18.26L208.82 21.50Z" transform="translate(0, 0)"></path></g></svg></svg>